<svg xmlns="http://www.w3.org/2000/svg" xmlns:xlink="http://www.w3.org/1999/xlink" id="Layer_1" x="0px" y="0px" viewBox="0 0 100 100" style="enable-background:new 0 0 100 100;" xml:space="preserve"><style type="text/css">	.st0{fill:#FFFFFF;}</style><g>	<g>		<path class="st0" d="M21.5,14.7v-6h-1.1V7.8h3.5v0.9h-1.1v6H21.5z"></path>		<path class="st0" d="M24,14.7l1.4-6.9h1.4l1.4,6.9H27l-0.3-1.6h-1.2l-0.3,1.6H24z M25.6,12.3h0.9l-0.5-2.9L25.6,12.3z"></path>		<path class="st0" d="M28.8,14.7V7.8h0.9l1.7,4v-4h1v6.9h-0.8l-1.7-4.1v4.1H28.8z"></path>		<path class="st0" d="M33.5,14.7V7.8h2c0.4,0,0.8,0.1,1,0.2c0.3,0.2,0.5,0.4,0.6,0.7c0.1,0.3,0.2,0.6,0.2,1.1   c0,0.5-0.1,0.8-0.2,1.1c-0.2,0.3-0.4,0.5-0.6,0.6c-0.3,0.1-0.6,0.2-1,0.2h-0.7v3.1H33.5z M34.7,10.7h0.5c0.2,0,0.4,0,0.5-0.1   c0.1-0.1,0.2-0.2,0.3-0.3c0-0.1,0.1-0.3,0.1-0.6c0-0.3,0-0.5-0.1-0.6c0-0.2-0.1-0.3-0.2-0.3c-0.1-0.1-0.3-0.1-0.6-0.1h-0.5V10.7z"></path>		<path class="st0" d="M37.3,14.7l1.4-6.9H40l1.4,6.9h-1.2L40,13.1h-1.2l-0.3,1.6H37.3z M38.9,12.3h0.9l-0.5-2.9L38.9,12.3z"></path>		<path class="st0" d="M20.8,24.5v-6.9h1.3v3.1l1.4-3.1h1.2l-1.3,3.1l1.5,3.8h-1.3l-1.2-3.2l-0.3,0.5v2.6H20.8z"></path>		<path class="st0" d="M25.3,24.5v-6.9h2.9v0.9h-1.6v2h1.3v0.9h-1.3v2.3h1.7v0.9H25.3z"></path>		<path class="st0" d="M29,24.5v-6.9h1.3v6.1h1.7v0.9H29z"></path>		<path class="st0" d="M32.3,24.5l1.4-6.9H35l1.4,6.9h-1.2l-0.3-1.6h-1.2l-0.3,1.6H32.3z M33.9,22.1h0.9l-0.5-2.9L33.9,22.1z"></path>		<path class="st0" d="M37,24.5v-6.9h2c0.4,0,0.8,0.1,1,0.2c0.3,0.2,0.5,0.4,0.6,0.7c0.1,0.3,0.2,0.6,0.2,1.1c0,0.5-0.1,0.8-0.2,1.1   c-0.2,0.3-0.4,0.5-0.6,0.6c-0.3,0.1-0.6,0.2-1,0.2h-0.7v3.1H37z M38.3,20.5h0.5c0.2,0,0.4,0,0.5-0.1c0.1-0.1,0.2-0.2,0.3-0.3   c0-0.1,0.1-0.3,0.1-0.6c0-0.3,0-0.5-0.1-0.6c0-0.2-0.1-0.3-0.2-0.3c-0.1-0.1-0.3-0.1-0.6-0.1h-0.5V20.5z"></path>		<path class="st0" d="M40.8,24.5l1.4-6.9h1.4l1.4,6.9h-1.2l-0.3-1.6h-1.2L42,24.5H40.8z M42.4,22.1h0.9l-0.5-2.9L42.4,22.1z"></path>		<path class="st0" d="M45.6,24.5v-6.9h1.7c0.5,0,0.9,0.1,1.2,0.2c0.3,0.1,0.6,0.3,0.7,0.6c0.2,0.3,0.3,0.6,0.3,1.1   c0,0.3,0,0.5-0.1,0.8c-0.1,0.2-0.1,0.4-0.3,0.6c-0.1,0.2-0.3,0.3-0.5,0.4l1,3.4h-1.3l-0.8-3.2h-0.6v3.2H45.6z M46.9,20.5h0.4   c0.2,0,0.4,0,0.6-0.1c0.1-0.1,0.2-0.2,0.3-0.3c0.1-0.2,0.1-0.4,0.1-0.6c0-0.3-0.1-0.6-0.2-0.8c-0.1-0.2-0.4-0.3-0.7-0.3h-0.5V20.5   z"></path>		<path class="st0" d="M50.1,24.5l1.4-6.9h1.4l1.4,6.9H53l-0.3-1.6h-1.2l-0.3,1.6H50.1z M51.7,22.1h0.9l-0.5-2.9L51.7,22.1z"></path>		<path class="st0" d="M54.9,24.5v-6.9h0.9l1.7,4v-4h1v6.9h-0.8L56,20.4v4.1H54.9z"></path>	</g>	<g>		<path class="st0" d="M7.3,24.1v-2l4-6.2c0.3-0.5,0.6-0.9,0.8-1.3c0.3-0.4,0.5-0.9,0.6-1.3c0.2-0.5,0.3-0.9,0.3-1.5   c0-0.6-0.1-1.1-0.3-1.4c-0.2-0.3-0.6-0.5-1-0.5c-0.4,0-0.8,0.1-1,0.4c-0.2,0.2-0.4,0.6-0.5,0.9c-0.1,0.4-0.1,0.8-0.1,1.3v0.7H7.3   v-0.7c0-1,0.1-1.8,0.4-2.6c0.3-0.7,0.8-1.3,1.4-1.7c0.6-0.4,1.5-0.6,2.5-0.6c1.4,0,2.5,0.4,3.2,1.1c0.7,0.8,1.1,1.8,1.1,3.2   c0,0.7-0.1,1.3-0.3,1.8c-0.2,0.5-0.4,1.1-0.7,1.6c-0.3,0.5-0.6,1-1,1.5l-3.4,5.1h5v2.2H7.3z"></path>	</g>	<g>		<path id="XMLID_252_" class="st0" d="M41.3,84.7v1.4c0,0,0,0,0,0c0,0,0,0,0,0c0,0.3,0.3,0.6,0.7,0.6c0,0,0,0,0,0s0,0,0,0h16.6   c0,0,0,0,0,0s0,0,0,0c0.4,0,0.7-0.3,0.7-0.7c0,0,0,0,0,0c0,0,0,0,0,0v-1.6c9.3-3.1,16.3-10.6,17.9-19.9c0,0,0,0,0-0.1   c0,0,0-0.1,0-0.1c0-0.4-0.3-0.7-0.7-0.7H23.9h-0.3c-0.4,0-0.7,0.3-0.7,0.7l0,0.3C24.6,74.1,31.8,81.7,41.3,84.7"></path>		<path id="XMLID_251_" class="st0" d="M59.3,41.2c-0.2,0.3-5.3,7.7,0.1,13.6c2.5,2.7,2.3,5.1,1.6,6.8h3.5c0.7-2.4,0.4-5.4-2.4-8.5   c-4-4.4,0.1-10.3,0.1-10.4c0.5-0.7,0.2-1.5-0.6-2C60.8,40.4,59.7,40.6,59.3,41.2"></path>		<path id="XMLID_250_" class="st0" d="M50.4,61.6h3.5c0.7-2.4,0.4-5.4-2.4-8.5c-4-4.4,0-10.3,0.1-10.4c0.5-0.7,0.2-1.5-0.6-2   c-0.8-0.4-1.8-0.2-2.3,0.5c-0.2,0.3-5.3,7.7,0.1,13.6C51.3,57.6,51.1,60,50.4,61.6"></path>		<path id="XMLID_249_" class="st0" d="M38.2,41.2c-0.2,0.3-5.3,7.7,0.1,13.6c2.5,2.7,2.3,5.1,1.6,6.8h3.5c0.7-2.4,0.4-5.4-2.4-8.5   c-4-4.4,0.1-10.3,0.1-10.4c0.5-0.7,0.2-1.5-0.6-2C39.7,40.4,38.7,40.6,38.2,41.2"></path>	</g></g></svg>