<svg xmlns="http://www.w3.org/2000/svg" xmlns:xlink="http://www.w3.org/1999/xlink" id="Layer_1" x="0px" y="0px" viewBox="0 0 100 100" style="enable-background:new 0 0 100 100;" xml:space="preserve"><style type="text/css">	.st0{fill:#009EDB;}	.st1{fill:#5FBA47;}	.st2{fill:#E4B531;}	.st3{fill:#C3202F;}	.st4{fill:#4A9E46;}	.st5{fill:#408045;}	.st6{fill:#F7C118;}	.st7{fill:#EE432A;}	.st8{fill:#F89C28;}	.st9{fill:#1A94D2;}	.st10{fill:#A01C44;}	.st11{fill:#26BBE1;}	.st12{fill:#F26B2C;}	.st13{fill:#E5243C;}	.st14{fill:#DB1769;}	.st15{fill:#17486A;}	.st16{fill:#C4962E;}	.st17{fill:#036A9C;}</style><g>	<g>		<path class="st0" d="M20.4,34.9c0-0.3-0.1-0.5-0.3-0.7c-0.2-0.2-0.6-0.3-1.1-0.5c-0.5-0.2-0.9-0.3-1.2-0.5c-0.8-0.4-1.2-1-1.2-1.8   c0-0.4,0.1-0.7,0.3-1c0.2-0.3,0.5-0.5,1-0.7c0.4-0.2,0.9-0.3,1.4-0.3c0.5,0,1,0.1,1.4,0.3c0.4,0.2,0.7,0.5,0.9,0.8   s0.3,0.7,0.3,1.2h-1.5c0-0.3-0.1-0.6-0.3-0.8c-0.2-0.2-0.5-0.3-0.9-0.3c-0.4,0-0.6,0.1-0.9,0.2s-0.3,0.4-0.3,0.6   c0,0.2,0.1,0.4,0.4,0.6c0.2,0.2,0.6,0.3,1,0.4c0.8,0.3,1.5,0.6,1.9,1c0.4,0.4,0.6,0.9,0.6,1.4c0,0.6-0.2,1.1-0.7,1.5   c-0.5,0.4-1.1,0.5-1.9,0.5c-0.6,0-1.1-0.1-1.5-0.3c-0.5-0.2-0.8-0.5-1-0.8s-0.4-0.8-0.4-1.2h1.5c0,0.8,0.5,1.2,1.4,1.2   c0.4,0,0.6-0.1,0.8-0.2C20.3,35.3,20.4,35.1,20.4,34.9z"></path>		<path class="st0" d="M28.6,29.5v4.8c0,0.8-0.2,1.4-0.7,1.9c-0.5,0.5-1.2,0.7-2,0.7c-0.8,0-1.5-0.2-2-0.7s-0.8-1.1-0.8-1.8v-4.8   h1.5v4.8c0,0.5,0.1,0.8,0.3,1s0.5,0.3,0.9,0.3c0.8,0,1.3-0.4,1.3-1.3v-4.8H28.6z"></path>		<path class="st0" d="M33.8,34.9c0-0.3-0.1-0.5-0.3-0.7c-0.2-0.2-0.6-0.3-1.1-0.5c-0.5-0.2-0.9-0.3-1.2-0.5c-0.8-0.4-1.2-1-1.2-1.8   c0-0.4,0.1-0.7,0.3-1c0.2-0.3,0.5-0.5,1-0.7c0.4-0.2,0.9-0.3,1.4-0.3c0.5,0,1,0.1,1.4,0.3c0.4,0.2,0.7,0.5,0.9,0.8   s0.3,0.7,0.3,1.2h-1.5c0-0.3-0.1-0.6-0.3-0.8c-0.2-0.2-0.5-0.3-0.9-0.3c-0.4,0-0.6,0.1-0.9,0.2s-0.3,0.4-0.3,0.6   c0,0.2,0.1,0.4,0.4,0.6c0.2,0.2,0.6,0.3,1,0.4c0.8,0.3,1.5,0.6,1.9,1c0.4,0.4,0.6,0.9,0.6,1.4c0,0.6-0.2,1.1-0.7,1.5   c-0.5,0.4-1.1,0.5-1.9,0.5c-0.6,0-1.1-0.1-1.5-0.3c-0.5-0.2-0.8-0.5-1-0.8s-0.4-0.8-0.4-1.2h1.5c0,0.8,0.5,1.2,1.4,1.2   c0.4,0,0.6-0.1,0.8-0.2C33.7,35.3,33.8,35.1,33.8,34.9z"></path>		<path class="st0" d="M41.9,30.7h-2.2v6h-1.5v-6H36v-1.2h5.9V30.7z"></path>		<path class="st0" d="M46.4,35.3h-2.6l-0.5,1.5h-1.6l2.7-7.3h1.4l2.7,7.3h-1.6L46.4,35.3z M44.2,34.1H46l-0.9-2.7L44.2,34.1z"></path>		<path class="st0" d="M51,36.8h-1.5v-7.3H51V36.8z"></path>		<path class="st0" d="M58.4,36.8h-1.5L54,32v4.8h-1.5v-7.3H54l2.9,4.8v-4.8h1.5V36.8z"></path>		<path class="st0" d="M64.1,35.3h-2.6L61,36.8h-1.6l2.7-7.3h1.4l2.7,7.3h-1.6L64.1,35.3z M61.9,34.1h1.8l-0.9-2.7L61.9,34.1z"></path>		<path class="st0" d="M67,36.8v-7.3h2.5c0.9,0,1.5,0.2,2,0.5c0.5,0.3,0.7,0.8,0.7,1.5c0,0.4-0.1,0.7-0.3,0.9   c-0.2,0.3-0.4,0.5-0.8,0.6c0.4,0.1,0.7,0.3,0.9,0.6c0.2,0.3,0.3,0.6,0.3,1c0,0.7-0.2,1.2-0.7,1.6s-1.1,0.5-1.9,0.5H67z M68.5,32.6   h1.1c0.8,0,1.1-0.3,1.1-0.9c0-0.3-0.1-0.6-0.3-0.7c-0.2-0.1-0.5-0.2-0.9-0.2h-1V32.6z M68.5,33.6v2h1.3c0.4,0,0.6-0.1,0.8-0.3   c0.2-0.2,0.3-0.4,0.3-0.7c0-0.7-0.3-1-1-1H68.5z"></path>		<path class="st0" d="M75.2,35.6h3.2v1.2h-4.7v-7.3h1.5V35.6z"></path>		<path class="st0" d="M83.8,33.6h-2.9v1.9h3.4v1.2h-4.9v-7.3h4.9v1.2h-3.4v1.7h2.9V33.6z"></path>		<path class="st0" d="M16.7,47v-7.3h2.2c0.6,0,1.2,0.1,1.7,0.4c0.5,0.3,0.9,0.7,1.2,1.2s0.4,1.1,0.4,1.8v0.3c0,0.7-0.1,1.3-0.4,1.8   c-0.3,0.5-0.7,0.9-1.2,1.2c-0.5,0.3-1.1,0.4-1.7,0.4H16.7z M18.2,40.9v4.8h0.7c0.6,0,1-0.2,1.3-0.6c0.3-0.4,0.5-0.9,0.5-1.6v-0.4   c0-0.7-0.2-1.3-0.5-1.7c-0.3-0.4-0.8-0.6-1.3-0.6H18.2z"></path>		<path class="st0" d="M27.4,43.8h-2.9v1.9h3.4V47H23v-7.3h4.9v1.2h-3.4v1.7h2.9V43.8z"></path>		<path class="st0" d="M31.1,45.2l1.6-5.5h1.7L31.9,47h-1.6l-2.5-7.3h1.7L31.1,45.2z"></path>		<path class="st0" d="M39.2,43.8h-2.9v1.9h3.4V47h-4.9v-7.3h4.9v1.2h-3.4v1.7h2.9V43.8z"></path>		<path class="st0" d="M41.8,45.8H45V47h-4.7v-7.3h1.5V45.8z"></path>		<path class="st0" d="M51.2,43.5c0,0.7-0.1,1.3-0.4,1.9c-0.3,0.5-0.6,1-1.1,1.2c-0.5,0.3-1,0.4-1.6,0.4c-0.6,0-1.1-0.1-1.6-0.4   c-0.5-0.3-0.8-0.7-1.1-1.2c-0.3-0.5-0.4-1.2-0.4-1.9v-0.4c0-0.7,0.1-1.3,0.4-1.9s0.6-1,1.1-1.3c0.5-0.3,1-0.4,1.6-0.4   c0.6,0,1.1,0.1,1.6,0.4c0.5,0.3,0.8,0.7,1.1,1.3c0.3,0.5,0.4,1.2,0.4,1.9V43.5z M49.7,43.2c0-0.8-0.1-1.3-0.4-1.7   c-0.3-0.4-0.7-0.6-1.2-0.6c-0.5,0-0.9,0.2-1.2,0.6c-0.3,0.4-0.4,1-0.4,1.7v0.4c0,0.7,0.1,1.3,0.4,1.7c0.3,0.4,0.7,0.6,1.2,0.6   c0.5,0,0.9-0.2,1.2-0.6c0.3-0.4,0.4-1,0.4-1.7V43.2z"></path>		<path class="st0" d="M53.5,44.4V47H52v-7.3h2.8c0.5,0,1,0.1,1.4,0.3s0.7,0.5,1,0.8s0.3,0.8,0.3,1.3c0,0.7-0.2,1.3-0.7,1.7   s-1.2,0.6-2,0.6H53.5z M53.5,43.2h1.3c0.4,0,0.7-0.1,0.9-0.3c0.2-0.2,0.3-0.5,0.3-0.8c0-0.4-0.1-0.6-0.3-0.9   c-0.2-0.2-0.5-0.3-0.9-0.3h-1.4V43.2z"></path>		<path class="st0" d="M60.2,39.7l1.9,5.3l1.9-5.3h2V47h-1.5v-2l0.1-3.4l-2,5.4h-1l-2-5.4l0.1,3.4v2h-1.5v-7.3H60.2z"></path>		<path class="st0" d="M71.3,43.8h-2.9v1.9h3.4V47h-4.9v-7.3h4.9v1.2h-3.4v1.7h2.9V43.8z"></path>		<path class="st0" d="M78.3,47h-1.5l-2.9-4.8V47h-1.5v-7.3h1.5l2.9,4.8v-4.8h1.5V47z"></path>		<path class="st0" d="M84.6,40.9h-2.2v6h-1.5v-6h-2.2v-1.2h5.9V40.9z"></path>	</g>	<g>		<g>			<g>				<path class="st0" d="M29,63.7c-0.6,0.7-1.5,1.3-2.6,1.7S24.1,66,22.8,66c-1.4,0-2.7-0.3-3.7-0.9s-1.9-1.5-2.5-2.7     c-0.6-1.2-0.9-2.6-0.9-4.1v-1.1c0-1.6,0.3-3,0.8-4.2s1.3-2.1,2.4-2.7c1-0.6,2.2-0.9,3.6-0.9c1.9,0,3.5,0.5,4.5,1.4     s1.7,2.3,1.9,4h-3.3c-0.1-0.9-0.5-1.6-1-2.1c-0.5-0.4-1.2-0.7-2.1-0.7c-1.1,0-2,0.4-2.6,1.3c-0.6,0.9-0.9,2.1-0.9,3.8v1     c0,1.7,0.3,3,1,3.9c0.7,0.9,1.6,1.3,2.9,1.3c1.3,0,2.2-0.3,2.7-0.8v-2.8h-3.1v-2.5H29V63.7z"></path>				<path class="st0" d="M56.6,62.4h-5.9l-1.1,3.4H46l6.1-16.3h3.1l6.1,16.3h-3.6L56.6,62.4z M51.6,59.6h4.1l-2.1-6.1L51.6,59.6z"></path>				<path class="st0" d="M65.3,63h7.1v2.7H62V49.4h3.4V63z"></path>				<path class="st0" d="M82,61.4c0-0.6-0.2-1.1-0.7-1.5c-0.4-0.3-1.3-0.7-2.4-1.1c-1.2-0.4-2.1-0.8-2.8-1.1c-1.9-1-2.8-2.4-2.8-4.1     c0-0.9,0.2-1.7,0.7-2.4c0.5-0.7,1.2-1.2,2.1-1.6c0.9-0.4,2-0.6,3.1-0.6c1.2,0,2.2,0.2,3.1,0.6c0.9,0.4,1.6,1,2.1,1.8     c0.5,0.8,0.8,1.6,0.8,2.6H82c0-0.7-0.2-1.3-0.7-1.7c-0.5-0.4-1.1-0.6-2-0.6c-0.8,0-1.5,0.2-1.9,0.5c-0.5,0.3-0.7,0.8-0.7,1.4     c0,0.5,0.3,1,0.8,1.3c0.5,0.4,1.3,0.7,2.4,1c1.9,0.6,3.3,1.3,4.2,2.1s1.3,1.9,1.3,3.2c0,1.4-0.5,2.5-1.6,3.3     c-1.1,0.8-2.5,1.2-4.3,1.2c-1.3,0-2.4-0.2-3.4-0.7c-1-0.5-1.8-1.1-2.4-1.9c-0.5-0.8-0.8-1.7-0.8-2.8h3.4c0,1.8,1.1,2.7,3.2,2.7     c0.8,0,1.4-0.2,1.9-0.5S82,62,82,61.4z"></path>			</g>		</g>		<g>			<path class="st1" d="M34.8,55.2c0.2-0.4,0.5-0.7,0.8-1l-2.5-2.7c-0.6,0.6-1.1,1.3-1.6,2L34.8,55.2z"></path>			<path class="st2" d="M40.8,53.3c0.4,0.2,0.7,0.4,1,0.6l2.5-2.7c-0.7-0.6-1.4-1-2.2-1.4L40.8,53.3z"></path>			<path class="st3" d="M46.5,54.1l-3.3,1.6c0.2,0.4,0.3,0.8,0.3,1.2l3.6-0.3C47.1,55.6,46.9,54.8,46.5,54.1"></path>			<path class="st4" d="M43,55.2l3.3-1.6c-0.4-0.8-0.9-1.4-1.5-2l-2.5,2.7C42.5,54.5,42.8,54.9,43,55.2"></path>			<path class="st5" d="M34.2,57.6c0-0.1,0-0.1,0-0.2L30.5,57c0,0.2,0,0.4,0,0.5c0,0.7,0.1,1.4,0.2,2l3.5-1    C34.2,58.2,34.2,57.9,34.2,57.6"></path>			<path class="st6" d="M42.5,60.5c-0.3,0.3-0.6,0.6-0.9,0.8l1.9,3.1c0.7-0.5,1.3-1.1,1.9-1.7L42.5,60.5z"></path>			<path class="st7" d="M43.6,57.6c0,0.3,0,0.7-0.1,1l3.5,1c0.2-0.6,0.2-1.3,0.2-2c0-0.2,0-0.3,0-0.5l-3.6,0.3    C43.6,57.4,43.6,57.5,43.6,57.6"></path>			<path class="st8" d="M35.3,60.6l-2.9,2.2c0.5,0.7,1.2,1.2,1.9,1.7l1.9-3.1C35.9,61.2,35.6,60.9,35.3,60.6"></path>			<path class="st9" d="M34.2,56.8c0.1-0.4,0.2-0.8,0.3-1.2L31.3,54c-0.4,0.8-0.6,1.6-0.7,2.5L34.2,56.8z"></path>			<path class="st10" d="M43.1,64.8l-1.9-3.1c-0.3,0.2-0.7,0.4-1.1,0.5l0.7,3.6C41.6,65.5,42.4,65.2,43.1,64.8"></path>			<path class="st11" d="M43.4,59.1c-0.1,0.4-0.3,0.7-0.5,1.1l2.9,2.2c0.5-0.7,0.8-1.4,1.1-2.2L43.4,59.1z"></path>			<path class="st12" d="M39.6,62.2c-0.2,0-0.4,0-0.7,0c-0.2,0-0.4,0-0.6,0l-0.7,3.6c0.4,0.1,0.8,0.1,1.2,0.1c0.5,0,0.9,0,1.4-0.1    L39.6,62.2z"></path>			<path class="st13" d="M39.2,52.8c0.4,0,0.8,0.1,1.2,0.2l1.3-3.4c-0.8-0.3-1.6-0.4-2.5-0.5V52.8z"></path>			<path class="st14" d="M37.8,62.2c-0.4-0.1-0.8-0.2-1.2-0.4l-1.9,3.1c0.7,0.4,1.5,0.7,2.4,0.9L37.8,62.2z"></path>			<path class="st15" d="M37.5,53c0.4-0.1,0.8-0.2,1.2-0.2v-3.7c-0.9,0-1.7,0.2-2.5,0.5L37.5,53z"></path>			<path class="st16" d="M35,60.2c-0.2-0.3-0.4-0.7-0.6-1.1l-3.5,1c0.3,0.8,0.7,1.6,1.2,2.3L35,60.2z"></path>			<path class="st17" d="M36,53.8c0.3-0.2,0.6-0.5,1-0.6l-1.3-3.4c-0.8,0.3-1.5,0.8-2.2,1.3L36,53.8z"></path>		</g>	</g></g></svg>